<svg width="281" height="174" viewBox="0 0 281 174" fill="none" xmlns="http://www.w3.org/2000/svg">
<path d="M280.878 54.678C280.878 42.9 271.284 33.384 259.506 33.384H257.478V28.704C235.092 13.806 201.084 5.304 163.878 5.304H159.51V1.248C159.51 0.546 158.964 0 158.262 0H146.094C145.392 0 144.846 0.546 144.846 1.248V5.304H136.11V1.248C136.11 0.546 135.564 0 134.862 0H122.694C121.992 0 121.446 0.546 121.446 1.248V5.304H117C79.7943 5.304 45.7863 13.806 23.4003 28.704V33.384H21.3723C9.5943 33.306 0.000305176 42.9 0.000305176 54.678V61.464V61.542V89.544V89.622V96.33C0.000305176 108.108 9.5943 117.702 21.3723 117.702H23.4003V122.304L70.2003 145.704V150.384L93.6783 173.862H117.156V145.782H187.2H187.278H210.6L257.4 122.304V117.702H259.428C271.206 117.702 280.8 108.108 280.8 96.33V89.622V61.386L280.878 54.678Z" fill="#00973E"/>
<path d="M60.8577 96.0002L51.8838 54.4211V52.9254H61.3961L66.6608 81.6419H67.8573L74.498 52.9254H85.3864L92.0271 81.6419H93.2236L98.4883 52.9254H108.001V54.4211L99.0267 96.0002H87.8991L80.5405 67.2837H79.3439L71.9853 96.0002H60.8577ZM132.545 96.9574C122.015 96.9574 114.118 91.2739 112.264 80.8044V68.1212C114.118 57.6517 122.015 51.9682 132.545 51.9682C143.074 51.9682 150.971 57.6517 152.826 68.1212V80.8044C150.971 91.2739 143.074 96.9574 132.545 96.9574ZM132.545 88.9407C138.348 88.9407 142.655 85.8298 143.852 80.3856V68.4802C142.655 63.036 138.348 59.9849 132.545 59.9849C126.742 59.9849 122.434 63.036 121.238 68.4802V80.3856C122.434 85.8298 126.742 88.9407 132.545 88.9407ZM166.079 96.0002L157.105 54.4211V52.9254H166.618L171.882 81.6419H173.079L179.72 52.9254H190.608L197.249 81.6419H198.445L203.71 52.9254H213.222V54.4211L204.248 96.0002H193.121L185.762 67.2837H184.565L177.207 96.0002H166.079ZM220.404 81.1035L218.609 68.54V52.9254H227.344V68.54L225.549 81.1035H220.404ZM222.977 96.9574C219.925 96.9574 217.473 94.5045 217.473 91.4534C217.473 88.4023 219.925 85.9494 222.977 85.9494C226.028 85.9494 228.481 88.4023 228.481 91.4534C228.481 94.5045 226.028 96.9574 222.977 96.9574Z" fill="white"/>
</svg>
